<svg xmlns="http://www.w3.org/2000/svg" xmlns:svg="http://www.w3.org/2000/svg" xmlns:xlink="http://www.w3.org/1999/xlink" id="svg5" width="512" height="512" version="1.1" viewBox="0 0 135.467 135.467"><defs id="defs2"><linearGradient id="linearGradient4204"><stop style="stop-color:gray;stop-opacity:1" id="stop4200" offset="0"/><stop style="stop-color:#4d4d4d;stop-opacity:0" id="stop5010" offset=".536"/><stop style="stop-color:gray;stop-opacity:0" id="stop4202" offset="1"/></linearGradient><radialGradient id="radialGradient8046" cx="63.448" cy="118.834" r="28.857" fx="63.448" fy="118.834" gradientTransform="matrix(1.8794705,0,0,0.14583335,-49.664773,101.50398)" gradientUnits="userSpaceOnUse" xlink:href="#linearGradient4204"/></defs><g id="layer2"><g id="g9064"><g id="g1243" style="fill:green;stroke-width:3;stroke-linejoin:round;stroke-miterlimit:10"><path id="path1255" d="M 72.360049,59.75583 108.17169,35.924712 V 88.350716 L 72.360049,106.64073 Z" points="108.172 35.925 108.172 88.351 72.36 106.641 72.36 59.756" style="fill:#e9e9ff;fill-rule:evenodd;stroke:none;stroke-width:12.7896;stroke-linejoin:round"/><path id="path1245" d="M 30.702563,41.2321 V 92.957247 L 72.360049,106.64073 V 59.75583 Z" points="30.703 92.957 72.36 106.641 72.36 59.756 30.703 41.232" style="fill:#353564;fill-rule:evenodd;stroke:none;stroke-width:12.7896;stroke-linejoin:round"/><path id="path1247" d="M 30.702563,41.2321 65.200633,12.17091 108.17169,35.924712 72.360049,59.75583 Z" points="65.201 12.171 108.172 35.925 72.36 59.756 30.703 41.232" style="fill:#4d4d9f;fill-rule:evenodd;stroke:none;stroke-width:12.7896;stroke-linejoin:round"/><path id="path1253" d="M 30.702563,92.957247 65.200633,70.723619 108.17169,88.350716 72.360049,106.64073 Z" points="65.201 70.724 108.172 88.351 72.36 106.641 30.703 92.957" style="fill:#008c00;fill-rule:evenodd;stroke:none;stroke-width:12.7896;stroke-linejoin:round"/><path id="path1251" d="M 65.200633,12.17091 V 70.723619 L 108.17169,88.350716 V 35.924712 Z" points="65.201 70.724 108.172 88.351 108.172 35.925 65.201 12.171" style="fill:#00ac00;fill-rule:evenodd;stroke:none;stroke-width:12.7896;stroke-linejoin:round"/><path id="path1249" d="M 30.702563,41.2321 65.200633,12.17091 V 70.723619 L 30.702563,92.957247 Z" points="65.201 12.171 65.201 70.724 30.703 92.957 30.703 41.232" style="fill:#006400;fill-rule:evenodd;stroke:none;stroke-width:12.7896;stroke-linejoin:round"/></g><ellipse style="fill:url(#radialGradient8046);fill-opacity:1;stroke-width:.825872;stroke-linejoin:round;stroke-miterlimit:10" id="path4168" cx="69.584" cy="118.834" rx="31.24" ry="4.208"/></g></g></svg>